<svg width="38" height="46" viewBox="0 0 38 46" fill="none" xmlns="http://www.w3.org/2000/svg">
<g clip-path="url(#clip0_242_347)">
<rect x="17.3645" y="7.29122" width="11.9524" height="16.9511" rx="1.75" transform="rotate(10.4572 17.3645 7.29122)" fill="#0F1115" stroke="#5F5F60" stroke-width="0.5"/>
<path d="M21.1745 19.6812C21.0675 19.6942 20.9084 19.6515 20.8222 19.5868C19.9767 18.6616 18.6476 16.4436 19.1404 14.6044C19.4083 13.6046 20.1337 13.151 21.006 13.3847C21.5231 13.5233 22.0687 14.3698 22.2378 14.8868C22.6427 14.5236 23.4287 14.0339 24.0568 14.2022C24.9291 14.4359 25.3305 15.1914 25.0626 16.1912C24.4876 18.337 22.0132 19.3167 21.1745 19.6812Z" fill="url(#paint0_linear_242_347)"/>
<rect x="8.78165" y="12.7841" width="11.9524" height="16.9511" rx="1.75" transform="rotate(-14.6472 8.78165 12.7841)" fill="#0F1115" stroke="#5F5F60" stroke-width="0.5"/>
<path d="M17.5632 22.334C17.4801 22.3964 17.3267 22.4375 17.2235 22.425C16.0718 22.06 13.8931 20.8491 13.4181 19.0761C13.1598 18.1123 13.5467 17.384 14.3876 17.1586C14.8862 17.0251 15.7497 17.4688 16.14 17.8189C16.303 17.3206 16.7231 16.5329 17.3286 16.3706C18.1695 16.1453 18.8687 16.5826 19.127 17.5464C19.6812 19.6149 18.0876 21.6255 17.5632 22.334Z" fill="url(#paint1_linear_242_347)"/>
</g>
<path d="M10.0241 42.12C8.05406 42.12 6.52406 40.72 6.52406 38.67C6.52406 36.62 8.05406 35.22 10.0241 35.22C11.3741 35.22 12.2041 35.92 12.7041 36.72L11.7041 37.23C11.3841 36.68 10.7441 36.26 10.0241 36.26C8.70406 36.26 7.72406 37.27 7.72406 38.67C7.72406 40.07 8.70406 41.08 10.0241 41.08C10.7441 41.08 11.3841 40.67 11.7041 40.11L12.7041 40.62C12.1941 41.42 11.3741 42.12 10.0241 42.12ZM17.5105 42H16.4605V41.48C16.1005 41.89 15.5405 42.12 14.9005 42.12C14.1105 42.12 13.2205 41.59 13.2205 40.52C13.2205 39.41 14.1105 38.95 14.9005 38.95C15.5505 38.95 16.1105 39.16 16.4605 39.57V38.85C16.4605 38.29 16.0005 37.95 15.3305 37.95C14.7905 37.95 14.3205 38.15 13.9005 38.56L13.4705 37.83C14.0305 37.3 14.7305 37.05 15.5005 37.05C16.5705 37.05 17.5105 37.5 17.5105 38.8V42ZM15.3105 41.4C15.7705 41.4 16.2205 41.23 16.4605 40.9V40.17C16.2205 39.84 15.7705 39.67 15.3105 39.67C14.7205 39.67 14.2805 40.01 14.2805 40.54C14.2805 41.06 14.7205 41.4 15.3105 41.4ZM19.8218 42H18.7718V37.17H19.8218V37.88C20.1818 37.42 20.7618 37.06 21.3918 37.06V38.1C21.3018 38.08 21.1918 38.07 21.0618 38.07C20.6218 38.07 20.0318 38.37 19.8218 38.71V42ZM26.5886 42H25.5386V41.34C25.1686 41.82 24.6086 42.12 23.9886 42.12C22.7486 42.12 21.8386 41.18 21.8386 39.59C21.8386 38.03 22.7386 37.05 23.9886 37.05C24.5886 37.05 25.1486 37.33 25.5386 37.84V35.33H26.5886V42ZM24.2886 41.19C24.7886 41.19 25.2986 40.91 25.5386 40.55V38.63C25.2986 38.27 24.7886 37.98 24.2886 37.98C23.4586 37.98 22.9286 38.65 22.9286 39.59C22.9286 40.52 23.4586 41.19 24.2886 41.19ZM29.4991 42.12C28.6791 42.12 27.9291 41.86 27.4291 41.37L27.9091 40.61C28.2491 40.96 28.9191 41.29 29.5491 41.29C30.1791 41.29 30.4991 41.02 30.4991 40.64C30.4991 39.69 27.5791 40.37 27.5791 38.52C27.5791 37.73 28.2591 37.05 29.4791 37.05C30.2991 37.05 30.9191 37.34 31.3591 37.73L30.9191 38.47C30.6291 38.14 30.0891 37.89 29.4891 37.89C28.9391 37.89 28.5891 38.14 28.5891 38.48C28.5891 39.34 31.5091 38.7 31.5091 40.62C31.5091 41.47 30.7991 42.12 29.4991 42.12Z" fill="#5F5F60"/>
<rect x="20.7" y="4.8582" width="14.6" height="11.6" rx="5.8" fill="#B5B3FF"/>
<rect x="20.7" y="4.8582" width="14.6" height="11.6" rx="5.8" stroke="#111315" stroke-width="1.4"/>
<path d="M26.8056 13.1582H25.8116V9.7702L25.0346 10.5612L24.4676 9.9662L25.9376 8.4892H26.8056V13.1582ZM29.4386 13.2422C28.1016 13.2422 27.5066 12.0312 27.5066 10.8272C27.5066 9.6232 28.1016 8.4192 29.4386 8.4192C30.7686 8.4192 31.3706 9.6232 31.3706 10.8272C31.3706 12.0312 30.7686 13.2422 29.4386 13.2422ZM29.4386 12.3602C30.1036 12.3602 30.3556 11.6882 30.3556 10.8272C30.3556 9.9662 30.1036 9.3012 29.4386 9.3012C28.7666 9.3012 28.5146 9.9662 28.5146 10.8272C28.5146 11.6882 28.7666 12.3602 29.4386 12.3602Z" fill="black"/>
<defs>
<linearGradient id="paint0_linear_242_347" x1="22.0864" y1="15.4542" x2="20.9608" y2="19.6552" gradientUnits="userSpaceOnUse">
<stop offset="0.00170068" stop-color="#5F5F60"/>
<stop offset="1" stop-color="#2B2B2D"/>
</linearGradient>
<linearGradient id="paint1_linear_242_347" x1="16.2871" y1="18.3656" x2="17.3722" y2="22.4153" gradientUnits="userSpaceOnUse">
<stop offset="0.00170068" stop-color="#5F5F60"/>
<stop offset="1" stop-color="#2B2B2D"/>
</linearGradient>
<clipPath id="clip0_242_347">
<rect width="21.9983" height="22" fill="white" transform="translate(8 7)"/>
</clipPath>
</defs>
</svg>
