<svg width="39" height="45" viewBox="0 0 39 45" fill="none" xmlns="http://www.w3.org/2000/svg">
<path d="M13.5105 15.728C12.7076 19.4017 14.4228 21.1919 15.9637 21.5974C16.9977 21.6582 17.3321 20.9768 17.3321 20.0464C17.3321 19.8944 17.3148 19.4858 17.3929 19.2253C17.5754 18.6171 17.8491 18.4042 18.1229 18.2217L18.3356 18.7083L18.6398 19.3165C18.8336 19.6249 19.2558 19.6451 19.5218 19.4382C20.0692 19.0124 19.6841 18.313 19.8058 17.0357C21.8129 19.7423 20.8903 20.9283 20.9815 21.4757C24.6613 21.1108 25.2814 18.9212 25.3406 17.279C25.425 14.9373 23.6273 12.6869 22.0763 11.7137C22.1372 12.1699 22.198 13.1735 22.0763 14.1466C21.9292 15.3235 20.7991 15.8193 20.0084 15.4543C18.5791 14.694 19.4002 12.3828 19.5218 10.8318C19.8563 8.39892 18.7615 7.15206 18.427 7C18.3054 7.88193 18.0419 8.42933 17.4033 9.58495C15.8827 11.7441 14.4127 12.5653 13.5105 15.728Z" stroke="#5F5F60" stroke-width="0.5"/>
<path d="M10.6409 27.5579L12.1919 27.6491L9.81983 28.0749C9.88065 28.2371 10.0388 28.6223 10.1848 28.8656C10.3307 29.1089 11.3809 28.967 11.8878 28.8656C17.3111 27.3552 28.3038 24.2978 28.8877 24.1519C29.4716 24.0059 29.4959 23.5031 29.4351 23.2699L29.1614 21.9927L25.6641 22.5097C26.475 22.2461 28.17 21.6825 28.4619 21.5365C28.7539 21.3905 28.7457 21.1107 28.7052 20.9891C28.7052 20.9283 28.6565 20.7458 28.4619 20.5025C28.2673 20.2592 27.6915 20.4011 27.4279 20.5025L9.33325 25.8853C9.36366 26.1488 9.47923 26.755 9.69819 27.0713C9.91715 27.3876 10.4179 27.5275 10.6409 27.5579Z" stroke="#5F5F60" stroke-width="0.5"/>
<path d="M26.3322 25.2467L20.3108 26.7673C22.4092 27.3552 26.7154 28.5676 27.1533 28.7136C27.7007 28.8961 28.5522 28.9265 28.6739 28.7136C28.7955 28.5007 29.2517 27.193 29.495 26.4632C29.6896 25.8793 29.495 25.6117 29.3733 25.5508C29.0591 25.4089 28.315 25.1129 27.8528 25.0643C27.3905 25.0156 26.6465 25.1656 26.3322 25.2467Z" stroke="#5F5F60" stroke-width="0.5"/>
<path d="M11.1273 24.3953L9.66747 23.8479C9.27181 23.7871 9.35323 23.483 9.42425 23.2397C9.59658 22.6517 9.97165 21.3603 10.0933 20.898C10.2149 20.4358 11.1577 20.6446 11.6139 20.8068L18.6388 22.7227C16.9966 23.1079 13.5176 23.9574 12.7391 24.2737C11.9605 24.59 11.3402 24.4866 11.1273 24.3953Z" stroke="#5F5F60" stroke-width="0.5"/>
<path d="M22.3186 9.03736C22.3186 9.47529 22.4808 9.64559 22.5619 9.676C22.7079 9.74899 22.9268 9.676 23.0485 9.37189C23.681 8.00947 22.9268 7.38502 22.4707 7.2431C22.5011 7.36475 22.5619 7.66886 22.5619 7.91215C22.5619 8.21626 22.3186 8.48996 22.3186 9.03736Z" stroke="#5F5F60"/>
<path d="M7.4572 42H4.0872V35.33H7.3672C8.5872 35.33 9.2672 36.09 9.2672 37.03C9.2672 37.87 8.7272 38.43 8.1072 38.56C8.8172 38.67 9.3972 39.38 9.3972 40.2C9.3972 41.23 8.7072 42 7.4572 42ZM7.1272 38.09C7.7272 38.09 8.0672 37.73 8.0672 37.23C8.0672 36.73 7.7272 36.36 7.1272 36.36H5.2572V38.09H7.1272ZM7.1772 40.97C7.8172 40.97 8.1972 40.62 8.1972 40.04C8.1972 39.54 7.8472 39.12 7.1772 39.12H5.2572V40.97H7.1772ZM12.6216 42.12C11.0916 42.12 10.1416 40.97 10.1416 39.58C10.1416 38.2 11.0916 37.05 12.6216 37.05C14.1716 37.05 15.1116 38.2 15.1116 39.58C15.1116 40.97 14.1716 42.12 12.6216 42.12ZM12.6216 41.19C13.5216 41.19 14.0216 40.44 14.0216 39.58C14.0216 38.73 13.5216 37.98 12.6216 37.98C11.7316 37.98 11.2316 38.73 11.2316 39.58C11.2316 40.44 11.7316 41.19 12.6216 41.19ZM20.384 42H19.334V38.98C19.334 38.23 18.954 37.98 18.364 37.98C17.824 37.98 17.364 38.3 17.124 38.63V42H16.074V37.17H17.124V37.83C17.444 37.45 18.064 37.05 18.824 37.05C19.864 37.05 20.384 37.61 20.384 38.6V42ZM22.9478 42H21.8978V38.09H21.0978V37.17H21.8978V36.9C21.8978 35.82 22.5378 35.23 23.4278 35.23C23.7578 35.23 24.0578 35.3 24.2678 35.42L24.0378 36.2C23.9378 36.13 23.7978 36.09 23.6178 36.09C23.2078 36.09 22.9478 36.36 22.9478 36.9V37.17H23.9278V38.09H22.9478V42ZM25.2478 36.58C24.8978 36.58 24.5978 36.29 24.5978 35.93C24.5978 35.57 24.8978 35.28 25.2478 35.28C25.6078 35.28 25.8978 35.57 25.8978 35.93C25.8978 36.29 25.6078 36.58 25.2478 36.58ZM25.7778 42H24.7278V37.17H25.7778V42ZM28.0861 42H27.0361V37.17H28.0861V37.88C28.4461 37.42 29.0261 37.06 29.6561 37.06V38.1C29.5661 38.08 29.4561 38.07 29.3261 38.07C28.8861 38.07 28.2961 38.37 28.0861 38.71V42ZM32.6329 42.12C31.1829 42.12 30.1029 41.11 30.1029 39.58C30.1029 38.18 31.1229 37.05 32.5529 37.05C34.0029 37.05 34.9329 38.16 34.9329 39.68V39.93H31.2029C31.2829 40.66 31.8329 41.26 32.7429 41.26C33.2129 41.26 33.7729 41.07 34.1129 40.73L34.5929 41.42C34.1129 41.88 33.4029 42.12 32.6329 42.12ZM33.9129 39.19C33.8929 38.62 33.5029 37.91 32.5529 37.91C31.6529 37.91 31.2429 38.6 31.1929 39.19H33.9129Z" fill="#5F5F60"/>
</svg>
