<svg width="39" height="45" viewBox="0 0 39 45" fill="none" xmlns="http://www.w3.org/2000/svg">
<path d="M8.68585 42H7.51585V37.05L5.46585 42H4.96585L2.92585 37.05V42H1.75585V35.33H3.40585L5.21585 39.72L7.03585 35.33H8.68585V42ZM13.9755 42H12.9255V41.48C12.5655 41.89 12.0055 42.12 11.3655 42.12C10.5755 42.12 9.68546 41.59 9.68546 40.52C9.68546 39.41 10.5755 38.95 11.3655 38.95C12.0155 38.95 12.5755 39.16 12.9255 39.57V38.85C12.9255 38.29 12.4655 37.95 11.7955 37.95C11.2555 37.95 10.7855 38.15 10.3655 38.56L9.93546 37.83C10.4955 37.3 11.1955 37.05 11.9655 37.05C13.0355 37.05 13.9755 37.5 13.9755 38.8V42ZM11.7755 41.4C12.2355 41.4 12.6855 41.23 12.9255 40.9V40.17C12.6855 39.84 12.2355 39.67 11.7755 39.67C11.1855 39.67 10.7455 40.01 10.7455 40.54C10.7455 41.06 11.1855 41.4 11.7755 41.4ZM16.6868 42.12C15.8768 42.12 15.4468 41.68 15.4468 40.88V38.09H14.6468V37.17H15.4468V35.85H16.4968V37.17H17.4768V38.09H16.4968V40.62C16.4968 40.95 16.6568 41.19 16.9568 41.19C17.1568 41.19 17.3468 41.11 17.4268 41.02L17.6768 41.81C17.4868 41.99 17.1768 42.12 16.6868 42.12ZM20.5301 42.12C19.0601 42.12 18.0301 41.05 18.0301 39.58C18.0301 38.12 19.0601 37.05 20.5301 37.05C21.4701 37.05 22.0401 37.45 22.3801 37.91L21.6901 38.55C21.4201 38.17 21.0501 37.98 20.5801 37.98C19.7001 37.98 19.1201 38.64 19.1201 39.58C19.1201 40.52 19.7001 41.19 20.5801 41.19C21.0501 41.19 21.4201 40.99 21.6901 40.62L22.3801 41.26C22.0401 41.72 21.4701 42.12 20.5301 42.12ZM27.5208 42H26.4708V38.96C26.4708 38.21 26.0808 37.98 25.4908 37.98C24.9608 37.98 24.5008 38.3 24.2508 38.63V42H23.2008V35.33H24.2508V37.83C24.5708 37.45 25.2008 37.05 25.9608 37.05C27.0008 37.05 27.5208 37.59 27.5208 38.58V42ZM31.0144 42.12C29.5644 42.12 28.4844 41.11 28.4844 39.58C28.4844 38.18 29.5044 37.05 30.9344 37.05C32.3844 37.05 33.3144 38.16 33.3144 39.68V39.93H29.5844C29.6644 40.66 30.2144 41.26 31.1244 41.26C31.5944 41.26 32.1544 41.07 32.4944 40.73L32.9744 41.42C32.4944 41.88 31.7844 42.12 31.0144 42.12ZM32.2944 39.19C32.2744 38.62 31.8844 37.91 30.9344 37.91C30.0344 37.91 29.6244 38.6 29.5744 39.19H32.2944ZM35.9009 42.12C35.0809 42.12 34.3309 41.86 33.8309 41.37L34.3109 40.61C34.6509 40.96 35.3209 41.29 35.9509 41.29C36.5809 41.29 36.9009 41.02 36.9009 40.64C36.9009 39.69 33.9809 40.37 33.9809 38.52C33.9809 37.73 34.6609 37.05 35.8809 37.05C36.7009 37.05 37.3209 37.34 37.7609 37.73L37.3209 38.47C37.0309 38.14 36.4909 37.89 35.8909 37.89C35.3409 37.89 34.9909 38.14 34.9909 38.48C34.9909 39.34 37.9109 38.7 37.9109 40.62C37.9109 41.47 37.2009 42.12 35.9009 42.12Z" fill="#B5B2FF"/>
<path d="M31.742 25.9262C32.6667 23.5 31.6667 20.5 30.1667 19.5L21.1667 23.5L20.6667 29C23.6667 32 27.159 30.6634 28.869 29.5165C28.9441 29.4668 29.0346 29.4465 29.1235 29.4593C29.2123 29.4722 29.2935 29.5173 29.3519 29.5863C30.0414 30.1534 30.8819 30.5006 31.7666 30.5836C32.4861 30.6684 32.5748 30.2196 31.9637 29.8007C31.6553 29.583 31.3976 29.2997 31.2086 28.9707C31.0197 28.6417 30.904 28.2748 30.8697 27.8959C30.861 27.783 30.8906 27.6704 30.9535 27.5768C31.2979 27.0705 31.5638 26.5139 31.742 25.9262Z" fill="#B5B2FF" stroke="#0F1115" stroke-width="0.5" stroke-miterlimit="10"/>
<path d="M30.0051 14.4334C28.2825 8.69581 21.8227 5.64544 15.6659 7.58218C9.50918 9.51892 5.95231 15.7246 7.6829 21.446C7.97118 22.397 8.40149 23.2978 8.9589 24.1171C9.06075 24.2687 9.10857 24.4508 9.09448 24.6336C9.03902 25.2469 8.85184 25.8405 8.54603 26.3729C8.24023 26.9054 7.82317 27.3638 7.32402 27.7162C6.33511 28.3941 6.47866 29.1203 7.64302 28.9832C9.07487 28.8488 10.435 28.2871 11.5508 27.3692C11.6453 27.2576 11.7767 27.1845 11.9205 27.1637C12.0644 27.1429 12.2107 27.1758 12.3324 27.2562C15.0997 29.1123 18.4093 29.4189 22.0619 28.265C28.1868 26.3605 31.7596 20.1549 30.0051 14.4334Z" fill="#B5B2FF" stroke="#0F1115" stroke-width="0.5" stroke-miterlimit="10"/>
</svg>
